<mxfile host="app.diagrams.net" modified="2023-04-07T01:10:52.769Z" agent="Mozilla/5.0 (Macintosh; Intel Mac OS X 10_15_7) AppleWebKit/537.36 (KHTML, like Gecko) Chrome/111.0.0.0 Safari/537.36" version="21.1.5" etag="sz1OnbXeicQ3yLMYbNJV" type="github">
  <diagram name="第 1 页" id="x2n3f1LssUUjP6nlciAq">
    <mxGraphModel>
      <root>
        <mxCell id="0" />
        <mxCell id="1" parent="0" />
      </root>
    </mxGraphModel>
  </diagram>
</mxfile>
